<mxfile host="app.diagrams.net" modified="2024-07-02T04:59:53.535Z" agent="Mozilla/5.0 (Macintosh; Intel Mac OS X 10_15_7) AppleWebKit/537.36 (KHTML, like Gecko) Chrome/125.0.0.0 Safari/537.36" etag="FMiynWLc6wBhTPPDpShE" version="24.6.3" type="device">
  <diagram name="Page-1" id="YBPNLHymaKYXu_r0LT9t">
    <mxGraphModel dx="1443" dy="878" grid="1" gridSize="10" guides="1" tooltips="1" connect="1" arrows="1" fold="1" page="1" pageScale="1" pageWidth="827" pageHeight="1169" math="0" shadow="0">
      <root>
        <mxCell id="0" />
        <mxCell id="1" parent="0" />
        <mxCell id="R5Q36gklIRTZVljyS70G-1" value="" style="image;aspect=fixed;html=1;points=[];align=center;fontSize=12;image=img/lib/azure2/general/Browser.svg;" vertex="1" parent="1">
          <mxGeometry x="568.75" y="130" width="137.5" height="110" as="geometry" />
        </mxCell>
        <mxCell id="R5Q36gklIRTZVljyS70G-2" value="" style="html=1;verticalLabelPosition=bottom;align=center;labelBackgroundColor=#ffffff;verticalAlign=top;strokeWidth=2;strokeColor=#0080F0;shadow=0;dashed=0;shape=mxgraph.ios7.icons.smartphone;" vertex="1" parent="1">
          <mxGeometry x="758.75" y="100" width="70" height="150" as="geometry" />
        </mxCell>
        <mxCell id="R5Q36gklIRTZVljyS70G-3" value="" style="rounded=0;whiteSpace=wrap;html=1;imageAspect=1;fillOpacity=0;fillColor=#fff2cc;strokeColor=#d6b656;" vertex="1" parent="1">
          <mxGeometry x="478.75" y="60" width="420" height="230" as="geometry" />
        </mxCell>
        <mxCell id="R5Q36gklIRTZVljyS70G-4" value="Browser" style="text;html=1;align=center;verticalAlign=middle;whiteSpace=wrap;rounded=0;" vertex="1" parent="1">
          <mxGeometry x="607.5" y="175" width="60" height="30" as="geometry" />
        </mxCell>
        <mxCell id="R5Q36gklIRTZVljyS70G-5" value="Mobile Device" style="text;html=1;align=center;verticalAlign=middle;whiteSpace=wrap;rounded=0;" vertex="1" parent="1">
          <mxGeometry x="732.75" y="160" width="126" height="30" as="geometry" />
        </mxCell>
        <mxCell id="R5Q36gklIRTZVljyS70G-7" value="User - Client Side" style="text;html=1;align=center;verticalAlign=middle;whiteSpace=wrap;rounded=0;fillColor=#d5e8d4;strokeColor=#82b366;" vertex="1" parent="1">
          <mxGeometry x="488.75" y="70" width="110" height="30" as="geometry" />
        </mxCell>
        <mxCell id="R5Q36gklIRTZVljyS70G-11" value="" style="image;aspect=fixed;perimeter=ellipsePerimeter;html=1;align=center;shadow=0;dashed=0;spacingTop=3;image=img/lib/active_directory/generic_server.svg;" vertex="1" parent="1">
          <mxGeometry x="341" y="1010" width="72.8" height="130" as="geometry" />
        </mxCell>
        <mxCell id="R5Q36gklIRTZVljyS70G-12" value="" style="rounded=0;whiteSpace=wrap;html=1;fillOpacity=0;dashed=1;" vertex="1" parent="1">
          <mxGeometry x="100" y="1000" width="430" height="150" as="geometry" />
        </mxCell>
        <mxCell id="R5Q36gklIRTZVljyS70G-15" value="" style="image;sketch=0;aspect=fixed;html=1;points=[];align=center;fontSize=12;image=img/lib/mscae/DNS.svg;" vertex="1" parent="1">
          <mxGeometry x="1048.75" y="105" width="100" height="100" as="geometry" />
        </mxCell>
        <mxCell id="R5Q36gklIRTZVljyS70G-16" value="" style="endArrow=classic;html=1;rounded=0;exitX=1;exitY=0.296;exitDx=0;exitDy=0;exitPerimeter=0;entryX=0;entryY=0.231;entryDx=0;entryDy=0;entryPerimeter=0;" edge="1" parent="1" source="R5Q36gklIRTZVljyS70G-3" target="R5Q36gklIRTZVljyS70G-15">
          <mxGeometry width="50" height="50" relative="1" as="geometry">
            <mxPoint x="908.75" y="300" as="sourcePoint" />
            <mxPoint x="1038.75" y="130" as="targetPoint" />
          </mxGeometry>
        </mxCell>
        <mxCell id="R5Q36gklIRTZVljyS70G-17" value="" style="endArrow=classic;html=1;rounded=0;entryX=1.004;entryY=0.48;entryDx=0;entryDy=0;entryPerimeter=0;exitX=-0.015;exitY=0.641;exitDx=0;exitDy=0;exitPerimeter=0;" edge="1" parent="1" source="R5Q36gklIRTZVljyS70G-15" target="R5Q36gklIRTZVljyS70G-3">
          <mxGeometry width="50" height="50" relative="1" as="geometry">
            <mxPoint x="1035.75" y="170" as="sourcePoint" />
            <mxPoint x="898.75" y="173.02999999999994" as="targetPoint" />
          </mxGeometry>
        </mxCell>
        <mxCell id="R5Q36gklIRTZVljyS70G-20" value="api.yoursite.com" style="text;html=1;align=center;verticalAlign=middle;whiteSpace=wrap;rounded=0;" vertex="1" parent="1">
          <mxGeometry x="928.75" y="100" width="100" height="30" as="geometry" />
        </mxCell>
        <mxCell id="R5Q36gklIRTZVljyS70G-21" value="IP Address&lt;div&gt;Returned&lt;/div&gt;&lt;div&gt;10.123.23.214&lt;/div&gt;" style="text;html=1;align=center;verticalAlign=middle;whiteSpace=wrap;rounded=0;" vertex="1" parent="1">
          <mxGeometry x="918.75" y="210" width="190" height="40" as="geometry" />
        </mxCell>
        <mxCell id="R5Q36gklIRTZVljyS70G-23" value="www.yoursite.com&lt;div&gt;&lt;br&gt;&lt;/div&gt;&lt;div&gt;10.123.23.214&lt;br&gt;&lt;/div&gt;" style="text;html=1;align=center;verticalAlign=middle;whiteSpace=wrap;rounded=0;" vertex="1" parent="1">
          <mxGeometry x="468.75" y="320" width="100" height="50" as="geometry" />
        </mxCell>
        <mxCell id="R5Q36gklIRTZVljyS70G-39" value="" style="outlineConnect=0;dashed=0;verticalLabelPosition=bottom;verticalAlign=top;align=center;html=1;shape=mxgraph.aws3.classic_load_balancer;fillColor=#F58534;gradientColor=none;rotation=90;" vertex="1" parent="1">
          <mxGeometry x="703.75" y="450" width="180" height="200" as="geometry" />
        </mxCell>
        <mxCell id="R5Q36gklIRTZVljyS70G-40" value="" style="shape=flexArrow;endArrow=classic;html=1;rounded=0;strokeColor=#000000;fillColor=#000000;" edge="1" parent="1">
          <mxGeometry width="50" height="50" relative="1" as="geometry">
            <mxPoint x="780.47" y="300" as="sourcePoint" />
            <mxPoint x="780" y="420" as="targetPoint" />
          </mxGeometry>
        </mxCell>
        <mxCell id="R5Q36gklIRTZVljyS70G-42" value="" style="image;aspect=fixed;perimeter=ellipsePerimeter;html=1;align=center;shadow=0;dashed=0;spacingTop=3;image=img/lib/active_directory/generic_server.svg;" vertex="1" parent="1">
          <mxGeometry x="200" y="1010" width="72.8" height="130" as="geometry" />
        </mxCell>
        <mxCell id="R5Q36gklIRTZVljyS70G-43" value="" style="shape=flexArrow;endArrow=classic;html=1;rounded=0;strokeColor=default;fillColor=#000000;" edge="1" parent="1">
          <mxGeometry width="50" height="50" relative="1" as="geometry">
            <mxPoint x="698.75" y="650" as="sourcePoint" />
            <mxPoint x="338.75" y="960" as="targetPoint" />
          </mxGeometry>
        </mxCell>
        <mxCell id="R5Q36gklIRTZVljyS70G-45" value="&lt;font style=&quot;font-size: 18px;&quot;&gt;Server 1&lt;/font&gt;" style="text;html=1;align=center;verticalAlign=middle;whiteSpace=wrap;rounded=0;" vertex="1" parent="1">
          <mxGeometry x="154.5" y="1160" width="105.5" height="30" as="geometry" />
        </mxCell>
        <mxCell id="R5Q36gklIRTZVljyS70G-46" value="&lt;font style=&quot;font-size: 18px;&quot;&gt;Server 2&lt;/font&gt;" style="text;html=1;align=center;verticalAlign=middle;whiteSpace=wrap;rounded=0;" vertex="1" parent="1">
          <mxGeometry x="341" y="1160" width="122.6" height="30" as="geometry" />
        </mxCell>
        <mxCell id="R5Q36gklIRTZVljyS70G-47" value="&lt;font style=&quot;font-size: 18px;&quot;&gt;Public IP:&amp;nbsp; 10.101.11.1&lt;/font&gt;" style="text;html=1;align=center;verticalAlign=middle;whiteSpace=wrap;rounded=0;" vertex="1" parent="1">
          <mxGeometry x="732.75" y="370" width="246" height="30" as="geometry" />
        </mxCell>
        <mxCell id="R5Q36gklIRTZVljyS70G-48" value="&lt;font style=&quot;font-size: 18px;&quot;&gt;Private IP:&amp;nbsp; 10.0.0.1&lt;/font&gt;" style="text;html=1;align=center;verticalAlign=middle;whiteSpace=wrap;rounded=0;" vertex="1" parent="1">
          <mxGeometry x="60" y="850" width="246" height="30" as="geometry" />
        </mxCell>
        <mxCell id="R5Q36gklIRTZVljyS70G-49" value="&lt;font style=&quot;font-size: 18px;&quot;&gt;Private IP:&amp;nbsp; 10.0.0.2&lt;/font&gt;" style="text;html=1;align=center;verticalAlign=middle;whiteSpace=wrap;rounded=0;" vertex="1" parent="1">
          <mxGeometry x="1084.25" y="840" width="246" height="30" as="geometry" />
        </mxCell>
        <mxCell id="R5Q36gklIRTZVljyS70G-51" value="" style="image;aspect=fixed;perimeter=ellipsePerimeter;html=1;align=center;shadow=0;dashed=0;spacingTop=3;image=img/lib/active_directory/database.svg;" vertex="1" parent="1">
          <mxGeometry x="140" y="1317" width="85.14" height="63" as="geometry" />
        </mxCell>
        <mxCell id="R5Q36gklIRTZVljyS70G-52" value="" style="image;aspect=fixed;perimeter=ellipsePerimeter;html=1;align=center;shadow=0;dashed=0;spacingTop=3;image=img/lib/active_directory/database.svg;" vertex="1" parent="1">
          <mxGeometry x="371" y="1317" width="85.14" height="63" as="geometry" />
        </mxCell>
        <mxCell id="R5Q36gklIRTZVljyS70G-55" value="Master DB" style="text;html=1;align=center;verticalAlign=middle;whiteSpace=wrap;rounded=0;" vertex="1" parent="1">
          <mxGeometry x="155" y="1380" width="60" height="30" as="geometry" />
        </mxCell>
        <mxCell id="R5Q36gklIRTZVljyS70G-56" value="Slave DB" style="text;html=1;align=center;verticalAlign=middle;whiteSpace=wrap;rounded=0;" vertex="1" parent="1">
          <mxGeometry x="384" y="1380" width="60" height="30" as="geometry" />
        </mxCell>
        <mxCell id="R5Q36gklIRTZVljyS70G-57" value="" style="shape=flexArrow;endArrow=classic;startArrow=classic;html=1;rounded=0;" edge="1" parent="1">
          <mxGeometry width="100" height="100" relative="1" as="geometry">
            <mxPoint x="230" y="1350" as="sourcePoint" />
            <mxPoint x="370" y="1350" as="targetPoint" />
          </mxGeometry>
        </mxCell>
        <mxCell id="R5Q36gklIRTZVljyS70G-58" value="Replicate" style="edgeLabel;html=1;align=center;verticalAlign=middle;resizable=0;points=[];" vertex="1" connectable="0" parent="R5Q36gklIRTZVljyS70G-57">
          <mxGeometry x="-0.2069" y="-1" relative="1" as="geometry">
            <mxPoint x="8" y="-2" as="offset" />
          </mxGeometry>
        </mxCell>
        <mxCell id="R5Q36gklIRTZVljyS70G-59" value="" style="rounded=1;whiteSpace=wrap;html=1;dashed=1;dashPattern=12 12;fillOpacity=0;" vertex="1" parent="1">
          <mxGeometry x="108.75" y="1280" width="360" height="130" as="geometry" />
        </mxCell>
        <mxCell id="R5Q36gklIRTZVljyS70G-60" value="" style="endArrow=classic;html=1;rounded=0;exitX=0.459;exitY=0.946;exitDx=0;exitDy=0;exitPerimeter=0;" edge="1" parent="1" source="R5Q36gklIRTZVljyS70G-45">
          <mxGeometry width="50" height="50" relative="1" as="geometry">
            <mxPoint x="320" y="1340" as="sourcePoint" />
            <mxPoint x="400" y="1280" as="targetPoint" />
          </mxGeometry>
        </mxCell>
        <mxCell id="R5Q36gklIRTZVljyS70G-62" value="Read Req" style="edgeLabel;html=1;align=center;verticalAlign=middle;resizable=0;points=[];" vertex="1" connectable="0" parent="R5Q36gklIRTZVljyS70G-60">
          <mxGeometry x="0.0281" relative="1" as="geometry">
            <mxPoint x="53" y="25" as="offset" />
          </mxGeometry>
        </mxCell>
        <mxCell id="R5Q36gklIRTZVljyS70G-61" value="" style="endArrow=classic;html=1;rounded=0;" edge="1" parent="1" source="R5Q36gklIRTZVljyS70G-46">
          <mxGeometry width="50" height="50" relative="1" as="geometry">
            <mxPoint x="213" y="1198" as="sourcePoint" />
            <mxPoint x="410" y="1280" as="targetPoint" />
          </mxGeometry>
        </mxCell>
        <mxCell id="R5Q36gklIRTZVljyS70G-63" value="Read Req" style="edgeLabel;html=1;align=center;verticalAlign=middle;resizable=0;points=[];" vertex="1" connectable="0" parent="R5Q36gklIRTZVljyS70G-61">
          <mxGeometry x="-0.1735" y="1" relative="1" as="geometry">
            <mxPoint x="23" y="33" as="offset" />
          </mxGeometry>
        </mxCell>
        <mxCell id="R5Q36gklIRTZVljyS70G-64" value="" style="endArrow=classic;html=1;rounded=0;exitX=0.468;exitY=1.054;exitDx=0;exitDy=0;exitPerimeter=0;entryX=0.192;entryY=-0.015;entryDx=0;entryDy=0;entryPerimeter=0;fillColor=#e51400;strokeColor=#B20000;" edge="1" parent="1" source="R5Q36gklIRTZVljyS70G-46" target="R5Q36gklIRTZVljyS70G-59">
          <mxGeometry width="50" height="50" relative="1" as="geometry">
            <mxPoint x="320" y="1340" as="sourcePoint" />
            <mxPoint x="370" y="1290" as="targetPoint" />
          </mxGeometry>
        </mxCell>
        <mxCell id="R5Q36gklIRTZVljyS70G-65" value="" style="endArrow=classic;html=1;rounded=0;entryX=0.195;entryY=-0.02;entryDx=0;entryDy=0;entryPerimeter=0;fillColor=#e51400;strokeColor=#B20000;" edge="1" parent="1" target="R5Q36gklIRTZVljyS70G-59">
          <mxGeometry width="50" height="50" relative="1" as="geometry">
            <mxPoint x="200" y="1190" as="sourcePoint" />
            <mxPoint x="188" y="1288" as="targetPoint" />
          </mxGeometry>
        </mxCell>
        <mxCell id="R5Q36gklIRTZVljyS70G-66" value="&lt;font color=&quot;#ff0000&quot;&gt;Write Req&lt;/font&gt;" style="edgeLabel;html=1;align=center;verticalAlign=middle;resizable=0;points=[];" vertex="1" connectable="0" parent="R5Q36gklIRTZVljyS70G-65">
          <mxGeometry x="-0.1419" y="1" relative="1" as="geometry">
            <mxPoint as="offset" />
          </mxGeometry>
        </mxCell>
        <mxCell id="R5Q36gklIRTZVljyS70G-67" value="&lt;font color=&quot;#ff0000&quot;&gt;Write Req&lt;/font&gt;" style="edgeLabel;html=1;align=center;verticalAlign=middle;resizable=0;points=[];" vertex="1" connectable="0" parent="1">
          <mxGeometry x="239.9982831168431" y="1249.9977071367325" as="geometry" />
        </mxCell>
        <mxCell id="R5Q36gklIRTZVljyS70G-69" value="" style="image;aspect=fixed;perimeter=ellipsePerimeter;html=1;align=center;shadow=0;dashed=0;spacingTop=3;image=img/lib/active_directory/generic_server.svg;" vertex="1" parent="1">
          <mxGeometry x="1341" y="1030" width="72.8" height="130" as="geometry" />
        </mxCell>
        <mxCell id="R5Q36gklIRTZVljyS70G-70" value="" style="rounded=0;whiteSpace=wrap;html=1;fillOpacity=0;dashed=1;" vertex="1" parent="1">
          <mxGeometry x="1100" y="1020" width="430" height="150" as="geometry" />
        </mxCell>
        <mxCell id="R5Q36gklIRTZVljyS70G-71" value="" style="image;aspect=fixed;perimeter=ellipsePerimeter;html=1;align=center;shadow=0;dashed=0;spacingTop=3;image=img/lib/active_directory/generic_server.svg;" vertex="1" parent="1">
          <mxGeometry x="1200" y="1030" width="72.8" height="130" as="geometry" />
        </mxCell>
        <mxCell id="R5Q36gklIRTZVljyS70G-73" value="" style="shape=flexArrow;endArrow=classic;html=1;rounded=0;fillColor=#FFFFFF;" edge="1" parent="1" source="R5Q36gklIRTZVljyS70G-39">
          <mxGeometry width="50" height="50" relative="1" as="geometry">
            <mxPoint x="730" y="670" as="sourcePoint" />
            <mxPoint x="1180" y="950" as="targetPoint" />
          </mxGeometry>
        </mxCell>
        <mxCell id="R5Q36gklIRTZVljyS70G-74" value="&lt;font style=&quot;font-size: 18px;&quot;&gt;Server 1&lt;/font&gt;" style="text;html=1;align=center;verticalAlign=middle;whiteSpace=wrap;rounded=0;" vertex="1" parent="1">
          <mxGeometry x="1154.5" y="1180" width="105.5" height="30" as="geometry" />
        </mxCell>
        <mxCell id="R5Q36gklIRTZVljyS70G-75" value="&lt;font style=&quot;font-size: 18px;&quot;&gt;Server 2&lt;/font&gt;" style="text;html=1;align=center;verticalAlign=middle;whiteSpace=wrap;rounded=0;" vertex="1" parent="1">
          <mxGeometry x="1341" y="1180" width="122.6" height="30" as="geometry" />
        </mxCell>
        <mxCell id="R5Q36gklIRTZVljyS70G-76" value="" style="image;aspect=fixed;perimeter=ellipsePerimeter;html=1;align=center;shadow=0;dashed=0;spacingTop=3;image=img/lib/active_directory/database.svg;" vertex="1" parent="1">
          <mxGeometry x="1140" y="1337" width="85.14" height="63" as="geometry" />
        </mxCell>
        <mxCell id="R5Q36gklIRTZVljyS70G-77" value="" style="image;aspect=fixed;perimeter=ellipsePerimeter;html=1;align=center;shadow=0;dashed=0;spacingTop=3;image=img/lib/active_directory/database.svg;" vertex="1" parent="1">
          <mxGeometry x="1371" y="1337" width="85.14" height="63" as="geometry" />
        </mxCell>
        <mxCell id="R5Q36gklIRTZVljyS70G-78" value="Master DB" style="text;html=1;align=center;verticalAlign=middle;whiteSpace=wrap;rounded=0;" vertex="1" parent="1">
          <mxGeometry x="1155" y="1400" width="60" height="30" as="geometry" />
        </mxCell>
        <mxCell id="R5Q36gklIRTZVljyS70G-79" value="Slave DB" style="text;html=1;align=center;verticalAlign=middle;whiteSpace=wrap;rounded=0;" vertex="1" parent="1">
          <mxGeometry x="1384" y="1400" width="60" height="30" as="geometry" />
        </mxCell>
        <mxCell id="R5Q36gklIRTZVljyS70G-80" value="" style="shape=flexArrow;endArrow=classic;startArrow=classic;html=1;rounded=0;" edge="1" parent="1">
          <mxGeometry width="100" height="100" relative="1" as="geometry">
            <mxPoint x="1230" y="1370" as="sourcePoint" />
            <mxPoint x="1370" y="1370" as="targetPoint" />
          </mxGeometry>
        </mxCell>
        <mxCell id="R5Q36gklIRTZVljyS70G-81" value="Replicate" style="edgeLabel;html=1;align=center;verticalAlign=middle;resizable=0;points=[];" vertex="1" connectable="0" parent="R5Q36gklIRTZVljyS70G-80">
          <mxGeometry x="-0.2069" y="-1" relative="1" as="geometry">
            <mxPoint x="8" y="-2" as="offset" />
          </mxGeometry>
        </mxCell>
        <mxCell id="R5Q36gklIRTZVljyS70G-82" value="" style="rounded=1;whiteSpace=wrap;html=1;dashed=1;dashPattern=12 12;fillOpacity=0;" vertex="1" parent="1">
          <mxGeometry x="1108.75" y="1300" width="360" height="130" as="geometry" />
        </mxCell>
        <mxCell id="R5Q36gklIRTZVljyS70G-83" value="" style="endArrow=classic;html=1;rounded=0;exitX=0.459;exitY=0.946;exitDx=0;exitDy=0;exitPerimeter=0;" edge="1" parent="1" source="R5Q36gklIRTZVljyS70G-74">
          <mxGeometry width="50" height="50" relative="1" as="geometry">
            <mxPoint x="1320" y="1360" as="sourcePoint" />
            <mxPoint x="1400" y="1300" as="targetPoint" />
          </mxGeometry>
        </mxCell>
        <mxCell id="R5Q36gklIRTZVljyS70G-84" value="Read Req" style="edgeLabel;html=1;align=center;verticalAlign=middle;resizable=0;points=[];" vertex="1" connectable="0" parent="R5Q36gklIRTZVljyS70G-83">
          <mxGeometry x="0.0281" relative="1" as="geometry">
            <mxPoint x="53" y="25" as="offset" />
          </mxGeometry>
        </mxCell>
        <mxCell id="R5Q36gklIRTZVljyS70G-85" value="" style="endArrow=classic;html=1;rounded=0;" edge="1" parent="1" source="R5Q36gklIRTZVljyS70G-75">
          <mxGeometry width="50" height="50" relative="1" as="geometry">
            <mxPoint x="1213" y="1218" as="sourcePoint" />
            <mxPoint x="1410" y="1300" as="targetPoint" />
          </mxGeometry>
        </mxCell>
        <mxCell id="R5Q36gklIRTZVljyS70G-86" value="Read Req" style="edgeLabel;html=1;align=center;verticalAlign=middle;resizable=0;points=[];" vertex="1" connectable="0" parent="R5Q36gklIRTZVljyS70G-85">
          <mxGeometry x="-0.1735" y="1" relative="1" as="geometry">
            <mxPoint x="23" y="33" as="offset" />
          </mxGeometry>
        </mxCell>
        <mxCell id="R5Q36gklIRTZVljyS70G-87" value="" style="endArrow=classic;html=1;rounded=0;exitX=0.468;exitY=1.054;exitDx=0;exitDy=0;exitPerimeter=0;entryX=0.192;entryY=-0.015;entryDx=0;entryDy=0;entryPerimeter=0;fillColor=#e51400;strokeColor=#B20000;" edge="1" parent="1" source="R5Q36gklIRTZVljyS70G-75" target="R5Q36gklIRTZVljyS70G-82">
          <mxGeometry width="50" height="50" relative="1" as="geometry">
            <mxPoint x="1320" y="1360" as="sourcePoint" />
            <mxPoint x="1370" y="1310" as="targetPoint" />
          </mxGeometry>
        </mxCell>
        <mxCell id="R5Q36gklIRTZVljyS70G-88" value="" style="endArrow=classic;html=1;rounded=0;entryX=0.195;entryY=-0.02;entryDx=0;entryDy=0;entryPerimeter=0;fillColor=#e51400;strokeColor=#B20000;" edge="1" parent="1" target="R5Q36gklIRTZVljyS70G-82">
          <mxGeometry width="50" height="50" relative="1" as="geometry">
            <mxPoint x="1200" y="1210" as="sourcePoint" />
            <mxPoint x="1188" y="1308" as="targetPoint" />
          </mxGeometry>
        </mxCell>
        <mxCell id="R5Q36gklIRTZVljyS70G-89" value="&lt;font color=&quot;#ff0000&quot;&gt;Write Req&lt;/font&gt;" style="edgeLabel;html=1;align=center;verticalAlign=middle;resizable=0;points=[];" vertex="1" connectable="0" parent="R5Q36gklIRTZVljyS70G-88">
          <mxGeometry x="-0.1419" y="1" relative="1" as="geometry">
            <mxPoint as="offset" />
          </mxGeometry>
        </mxCell>
        <mxCell id="R5Q36gklIRTZVljyS70G-90" value="&lt;font color=&quot;#ff0000&quot;&gt;Write Req&lt;/font&gt;" style="edgeLabel;html=1;align=center;verticalAlign=middle;resizable=0;points=[];" vertex="1" connectable="0" parent="1">
          <mxGeometry x="1239.9982831168431" y="1269.9977071367325" as="geometry" />
        </mxCell>
        <mxCell id="R5Q36gklIRTZVljyS70G-93" value="&lt;font style=&quot;font-size: 24px;&quot;&gt;No- SQL database&lt;/font&gt;" style="strokeWidth=2;html=1;shape=mxgraph.flowchart.database;whiteSpace=wrap;" vertex="1" parent="1">
          <mxGeometry x="740" y="1000" width="160" height="190" as="geometry" />
        </mxCell>
        <mxCell id="R5Q36gklIRTZVljyS70G-94" value="" style="endArrow=classic;html=1;rounded=0;" edge="1" parent="1">
          <mxGeometry width="50" height="50" relative="1" as="geometry">
            <mxPoint x="540" y="1100" as="sourcePoint" />
            <mxPoint x="730" y="1100" as="targetPoint" />
          </mxGeometry>
        </mxCell>
        <mxCell id="R5Q36gklIRTZVljyS70G-95" value="" style="endArrow=classic;html=1;rounded=0;" edge="1" parent="1">
          <mxGeometry width="50" height="50" relative="1" as="geometry">
            <mxPoint x="1090" y="1110" as="sourcePoint" />
            <mxPoint x="920" y="1110" as="targetPoint" />
          </mxGeometry>
        </mxCell>
        <mxCell id="R5Q36gklIRTZVljyS70G-96" value="&lt;font style=&quot;font-size: 18px;&quot;&gt;Shared Storage to Store user Session data&lt;/font&gt;" style="text;html=1;align=center;verticalAlign=middle;whiteSpace=wrap;rounded=0;" vertex="1" parent="1">
          <mxGeometry x="690" y="1210" width="260" height="30" as="geometry" />
        </mxCell>
        <mxCell id="R5Q36gklIRTZVljyS70G-98" value="" style="shape=mxgraph.mockup.markup.redX;fillColor=#ff0000;html=1;shadow=0;whiteSpace=wrap;strokeColor=none;rotation=-45;" vertex="1" parent="1">
          <mxGeometry x="968.75" y="740" width="80" height="80" as="geometry" />
        </mxCell>
        <mxCell id="R5Q36gklIRTZVljyS70G-99" value="" style="rounded=0;whiteSpace=wrap;html=1;fillOpacity=20;fillColor=#E1D5E7;" vertex="1" parent="1">
          <mxGeometry x="1000" y="950" width="620" height="631.5" as="geometry" />
        </mxCell>
        <mxCell id="R5Q36gklIRTZVljyS70G-101" value="&lt;font style=&quot;font-size: 18px;&quot;&gt;100% tarffic to this Data center&lt;/font&gt;" style="text;html=1;align=center;verticalAlign=middle;whiteSpace=wrap;rounded=0;" vertex="1" parent="1">
          <mxGeometry x="409" y="740" width="131" height="30" as="geometry" />
        </mxCell>
      </root>
    </mxGraphModel>
  </diagram>
</mxfile>
